<?xml version="1.0" encoding="UTF-8" standalone="no"?>
<!DOCTYPE svg PUBLIC "-//W3C//DTD SVG 1.1//EN" "http://www.w3.org/Graphics/SVG/1.1/DTD/svg11.dtd">
<svg width="100%" height="100%" viewBox="0 0 1080 1359" version="1.1" xmlns="http://www.w3.org/2000/svg" xmlns:xlink="http://www.w3.org/1999/xlink" xml:space="preserve" xmlns:serif="http://www.serif.com/" style="fill-rule:evenodd;clip-rule:evenodd;stroke-linecap:round;stroke-linejoin:round;stroke-miterlimit:1.5;">
    <g transform="matrix(1,0,0,1,-1338,-1484)">
        <g id="Artboard7" transform="matrix(1,0,0,0.91489,-0.241504,125.904)">
            <rect x="1338.24" y="1484.44" width="1079.5" height="1484.8" style="fill:none;"/>
            <clipPath id="_clip1">
                <rect x="1338.24" y="1484.44" width="1079.5" height="1484.8"/>
            </clipPath>
            <g clip-path="url(#_clip1)">
                <g transform="matrix(0.738318,0,0,0.807002,1217.13,1696.25)">
                    <path d="M854.054,394.747C945.296,552.505 1030.96,809.713 1052.86,867.737C952.035,1024.11 866.681,1178.35 758.483,1329.74C822.606,1372.04 864.671,1419.8 933.694,1473.19C1009.98,1326.18 1055.85,1243.4 1156.83,1113.74C1220.1,1216.42 1349.44,1395.64 1420.75,1492.88C1455.8,1468.04 1558.72,1377.7 1592.99,1351.79C1546.8,1281.97 1503.16,1217.73 1458.83,1146.48C1392.17,1039.36 1329.49,923.065 1272.56,810.678C1219.14,705.213 1158.73,604.054 1110.39,495.944C1051.21,363.602 1009.57,223.992 954.045,90.209C862.557,233.088 805.977,352.694 689.558,496.206C711.673,479.238 833.629,413.733 854.054,394.747" style="fill:rgb(173,173,173);"/>
                    <path d="M854.568,401.759C883.939,454.913 912.195,518.644 938.337,581.787C989.196,704.626 1030.82,825.793 1046.11,867.006C975.991,975.796 913.265,1083.56 845.024,1190.04C815.814,1235.62 785.595,1280.97 753.341,1326.06C752.342,1327.46 751.955,1329.2 752.269,1330.89C752.582,1332.58 753.569,1334.07 755.003,1335.01C774.562,1347.92 792.045,1361.35 808.877,1375.28C847.098,1406.94 881.991,1441.23 929.8,1478.23C931.292,1479.38 933.22,1479.81 935.063,1479.41C936.906,1479 938.474,1477.8 939.343,1476.12C977.304,1403 1007.72,1345.8 1041.16,1290.8C1073.49,1237.63 1108.66,1186.52 1156.24,1125.02C1181.85,1166.02 1216.78,1217.77 1253.97,1271.23C1311,1353.24 1373.36,1439.29 1415.47,1496.74C1417.59,1499.62 1421.61,1500.27 1424.52,1498.21C1433.02,1492.19 1445.48,1482.36 1459.97,1470.53C1505.33,1433.5 1570.94,1376.68 1596.94,1357.02C1599.7,1354.93 1600.37,1351.06 1598.46,1348.17C1570.68,1306.18 1543.83,1266.21 1517.19,1225.52C1499.57,1198.6 1482.04,1171.36 1464.4,1143.01C1431.15,1089.56 1398.89,1033.82 1367.84,977.423C1336.75,920.961 1306.88,863.84 1278.45,807.696C1241.04,733.832 1200.2,662.078 1162.48,588.571C1146.39,557.215 1130.87,525.539 1116.43,493.24C1098.73,453.644 1082.6,413.395 1067.2,372.847C1031.15,277.922 999.072,181.363 960.192,87.658C959.242,85.369 957.099,83.798 954.631,83.58C952.162,83.362 949.777,84.533 948.441,86.62C892.109,174.606 848.993,253.753 797.031,335.118C764.733,385.692 729.015,437.135 684.484,492.09C682.397,494.662 682.566,498.389 684.876,500.762C687.186,503.136 690.907,503.405 693.535,501.389C709.951,488.755 781.789,449.246 825.518,421.981C831.603,418.187 837.186,414.675 841.934,411.383C847.141,407.773 851.413,404.486 854.568,401.759ZM858.969,397.24C890.143,450.183 921.07,513.825 948.499,577.495C1002.46,702.755 1044.05,827.421 1058.54,865.593C1059.22,867.394 1059,869.41 1057.96,871.027C987.292,980.746 924.24,1089.42 855.564,1196.79C827.424,1240.78 798.338,1284.56 767.408,1328.1C785.197,1340.14 801.351,1352.62 816.954,1365.53C853.465,1395.74 886.925,1428.38 931.57,1463.47C968.029,1393.26 997.696,1337.67 1030.21,1284.15C1064.03,1228.48 1100.93,1175.05 1151.74,1109.78C1153.04,1108.11 1155.07,1107.19 1157.18,1107.3C1159.29,1107.42 1161.21,1108.56 1162.32,1110.36C1188.19,1152.33 1225.13,1207.1 1264.61,1263.83C1319.9,1343.25 1380.18,1426.47 1422.16,1483.76C1430.04,1477.88 1440.21,1469.77 1451.7,1460.39C1494.57,1425.39 1555.47,1372.77 1584.16,1350.32C1557.57,1310.17 1531.79,1271.77 1506.21,1232.71C1488.53,1205.71 1470.94,1178.39 1453.25,1149.95C1419.86,1096.31 1387.47,1040.37 1356.3,983.774C1325.14,927.183 1295.19,869.932 1266.68,813.659C1229.27,739.82 1188.43,668.093 1150.71,594.612C1134.51,563.048 1118.88,531.161 1104.34,498.648C1086.53,458.822 1070.3,418.341 1054.8,377.558C1020.3,286.757 989.447,194.454 952.771,104.598C899.755,188.282 858.09,264.279 808.218,342.267C781.604,383.886 752.654,426.065 718.448,470.279C748.054,452.732 789.608,429.217 818.888,411.26C824.877,407.588 830.313,404.104 835.09,401.072C841.888,396.756 847.26,393.34 850.298,390.706C852.528,388.633 856.022,388.761 858.095,390.991C859.712,392.731 859.99,395.24 858.969,397.24Z"/>
                </g>
                <g transform="matrix(0.770346,0,0,0.790179,1016.92,1912.46)">
                    <rect x="503.745" y="1031.51" width="1314.69" height="388.48" style="fill:white;"/>
                </g>
                <g transform="matrix(1,0,0,1.09303,-58.793,1501.21)">
                    <rect x="2357.47" y="996.465" width="91.583" height="271.381" style="fill:white;"/>
                </g>
                <g transform="matrix(0.83399,0,0,1.26818,949.229,1331.37)">
                    <rect x="793.303" y="199.885" width="799.796" height="901.033" style="fill:url(#_Linear2);stroke:black;stroke-width:3.62px;"/>
                </g>
                <g transform="matrix(0.83399,0,0,1.26818,968.289,1331.37)">
                    <rect x="793.303" y="199.885" width="799.796" height="901.033" style="fill:none;stroke:rgb(5,0,52);stroke-width:44.66px;"/>
                </g>
                <g transform="matrix(0.738318,0,0,0.807002,866.727,1723.44)">
                    <path d="M854.054,394.747C945.296,552.505 1030.96,809.713 1052.86,867.737C952.035,1024.11 866.681,1178.35 758.483,1329.74C822.606,1372.04 864.671,1419.8 933.694,1473.19C1009.98,1326.18 1055.85,1243.4 1156.83,1113.74C1220.1,1216.42 1349.44,1395.64 1420.75,1492.88C1455.8,1468.04 1558.72,1377.7 1592.99,1351.79C1546.8,1281.97 1503.16,1217.73 1458.83,1146.48C1392.17,1039.36 1329.49,923.065 1272.56,810.678C1219.14,705.213 1158.73,604.054 1110.39,495.944C1051.21,363.602 1009.57,223.992 954.045,90.209C862.557,233.088 805.977,352.694 689.558,496.206C711.673,479.238 833.629,413.733 854.054,394.747" style="fill:rgb(173,173,173);"/>
                    <path d="M854.568,401.759C883.939,454.913 912.195,518.644 938.337,581.787C989.196,704.626 1030.82,825.793 1046.11,867.006C975.991,975.796 913.265,1083.56 845.024,1190.04C815.814,1235.62 785.595,1280.97 753.341,1326.06C752.342,1327.46 751.955,1329.2 752.269,1330.89C752.582,1332.58 753.569,1334.07 755.003,1335.01C774.562,1347.92 792.045,1361.35 808.877,1375.28C847.098,1406.94 881.991,1441.23 929.8,1478.23C931.292,1479.38 933.22,1479.81 935.063,1479.41C936.906,1479 938.474,1477.8 939.343,1476.12C977.304,1403 1007.72,1345.8 1041.16,1290.8C1073.49,1237.63 1108.66,1186.52 1156.24,1125.02C1181.85,1166.02 1216.78,1217.77 1253.97,1271.23C1311,1353.24 1373.36,1439.29 1415.47,1496.74C1417.59,1499.62 1421.61,1500.27 1424.52,1498.21C1433.02,1492.19 1445.48,1482.36 1459.97,1470.53C1505.33,1433.5 1570.94,1376.68 1596.94,1357.02C1599.7,1354.93 1600.37,1351.06 1598.46,1348.17C1570.68,1306.18 1543.83,1266.21 1517.19,1225.52C1499.57,1198.6 1482.04,1171.36 1464.4,1143.01C1431.15,1089.56 1398.89,1033.82 1367.84,977.423C1336.75,920.961 1306.88,863.84 1278.45,807.696C1241.04,733.832 1200.2,662.078 1162.48,588.571C1146.39,557.215 1130.87,525.539 1116.43,493.24C1098.73,453.644 1082.6,413.395 1067.2,372.847C1031.15,277.922 999.072,181.363 960.192,87.658C959.242,85.369 957.099,83.798 954.631,83.58C952.162,83.362 949.777,84.533 948.441,86.62C892.109,174.606 848.993,253.753 797.031,335.118C764.733,385.692 729.015,437.135 684.484,492.09C682.397,494.662 682.566,498.389 684.876,500.762C687.186,503.136 690.907,503.405 693.535,501.389C709.951,488.755 781.789,449.246 825.518,421.981C831.603,418.187 837.186,414.675 841.934,411.383C847.141,407.773 851.413,404.486 854.568,401.759ZM858.969,397.24C890.143,450.183 921.07,513.825 948.499,577.495C1002.46,702.755 1044.05,827.421 1058.54,865.593C1059.22,867.394 1059,869.41 1057.96,871.027C987.292,980.746 924.24,1089.42 855.564,1196.79C827.424,1240.78 798.338,1284.56 767.408,1328.1C785.197,1340.14 801.351,1352.62 816.954,1365.53C853.465,1395.74 886.925,1428.38 931.57,1463.47C968.029,1393.26 997.696,1337.67 1030.21,1284.15C1064.03,1228.48 1100.93,1175.05 1151.74,1109.78C1153.04,1108.11 1155.07,1107.19 1157.18,1107.3C1159.29,1107.42 1161.21,1108.56 1162.32,1110.36C1188.19,1152.33 1225.13,1207.1 1264.61,1263.83C1319.9,1343.25 1380.18,1426.47 1422.16,1483.76C1430.04,1477.88 1440.21,1469.77 1451.7,1460.39C1494.57,1425.39 1555.47,1372.77 1584.16,1350.32C1557.57,1310.17 1531.79,1271.77 1506.21,1232.71C1488.53,1205.71 1470.94,1178.39 1453.25,1149.95C1419.86,1096.31 1387.47,1040.37 1356.3,983.774C1325.14,927.183 1295.19,869.932 1266.68,813.659C1229.27,739.82 1188.43,668.093 1150.71,594.612C1134.51,563.048 1118.88,531.161 1104.34,498.648C1086.53,458.822 1070.3,418.341 1054.8,377.558C1020.3,286.757 989.447,194.454 952.771,104.598C899.755,188.282 858.09,264.279 808.218,342.267C781.604,383.886 752.654,426.065 718.448,470.279C748.054,452.732 789.608,429.217 818.888,411.26C824.877,407.588 830.313,404.104 835.09,401.072C841.888,396.756 847.26,393.34 850.298,390.706C852.528,388.633 856.022,388.761 858.095,390.991C859.712,392.731 859.99,395.24 858.969,397.24Z"/>
                </g>
                <g transform="matrix(1,0,0,1.09303,1308.43,1835.38)">
                    <path d="M304.785,167.747C305.034,167.274 305.221,166.619 305.128,165.787C305.058,165.168 304.769,164.249 304.198,163.243C303.344,161.739 301.83,159.908 300.06,158.719C298.603,157.739 296.977,157.193 295.371,157.284C292.717,157.436 291.215,158.396 290.321,159.453C289.356,160.594 289,161.997 289.045,163.4C289.089,164.785 289.569,166.141 289.749,166.755C290.913,170.728 292.954,172.281 294.851,172.799C296.716,173.308 298.75,172.808 300.519,171.765C302.762,170.442 304.489,168.307 304.785,167.747ZM299.278,165.804C298.844,166.221 298.274,166.718 297.732,167.038C297.268,167.311 296.785,167.638 296.296,167.505C296.086,167.448 295.941,167.245 295.768,166.982C295.477,166.54 295.232,165.954 295.015,165.212C294.927,164.913 294.712,164.361 294.591,163.724C294.552,163.521 294.55,163.136 294.551,162.99C294.602,162.966 294.674,162.933 294.729,162.915C294.992,162.831 295.309,162.785 295.685,162.763C296.61,162.71 297.427,163.509 298.136,164.247C298.555,164.683 298.979,165.316 299.278,165.804Z" style="fill:rgb(5,0,52);"/>
                </g>
                <g transform="matrix(1,0,0,1.09303,1672.99,1807.31)">
                    <path d="M304.785,167.747C305.034,167.274 305.221,166.619 305.128,165.787C305.058,165.168 304.769,164.249 304.198,163.243C303.344,161.739 301.83,159.908 300.06,158.719C298.603,157.739 296.977,157.193 295.371,157.284C292.717,157.436 291.215,158.396 290.321,159.453C289.356,160.594 289,161.997 289.045,163.4C289.089,164.785 289.569,166.141 289.749,166.755C290.913,170.728 292.954,172.281 294.851,172.799C296.716,173.308 298.75,172.808 300.519,171.765C302.762,170.442 304.489,168.307 304.785,167.747ZM299.278,165.804C298.844,166.221 298.274,166.718 297.732,167.038C297.268,167.311 296.785,167.638 296.296,167.505C296.086,167.448 295.941,167.245 295.768,166.982C295.477,166.54 295.232,165.954 295.015,165.212C294.927,164.913 294.712,164.361 294.591,163.724C294.552,163.521 294.55,163.136 294.551,162.99C294.602,162.966 294.674,162.933 294.729,162.915C294.992,162.831 295.309,162.785 295.685,162.763C296.61,162.71 297.427,163.509 298.136,164.247C298.555,164.683 298.979,165.316 299.278,165.804Z" style="fill:rgb(5,0,52);"/>
                </g>
                <g transform="matrix(0.310375,0.0811737,-0.074265,0.339249,1764.64,1373.89)">
                    <path d="M1043.71,1082.83C1100.67,1061.59 1160.64,1049.75 1221.3,1046.1C1397.67,1035.49 1567.07,1134.88 1429.21,1319.75C1410.23,1345.2 1385.72,1369.22 1358.45,1385.72C1260.81,1444.82 1088.53,1398.06 995.751,1329.45" style="fill:rgb(100,100,100);"/>
                    <path d="M1050.09,1099.94C1077.7,1089.71 1106.05,1081.79 1134.83,1075.95C1163.67,1070.09 1192.96,1066.34 1222.41,1064.59C1303.9,1059.77 1384.1,1078.93 1428.46,1121.54C1471.37,1162.76 1475.64,1225.83 1413.92,1308.35C1405.07,1320.2 1394.93,1331.73 1383.8,1342.18C1372.87,1352.45 1360.97,1361.68 1348.45,1369.19C1302.29,1396.83 1238.21,1397.93 1175.27,1384.85C1112.94,1371.89 1051.6,1344.52 1008.49,1312.23C998.98,1305.2 985.556,1307.21 978.528,1316.71C971.499,1326.22 973.51,1339.64 983.016,1346.67C1040.11,1388.37 1125.56,1422.19 1207.12,1430.53C1266.98,1436.65 1324.68,1429.03 1368.46,1402.24C1383.2,1393.25 1397.2,1382.23 1410.08,1370C1422.77,1357.96 1434.38,1344.76 1444.5,1331.15C1522.23,1226.61 1508.78,1146.45 1454.4,1094.47C1403.74,1046.03 1313.02,1021.93 1220.19,1027.61C1188.99,1029.51 1157.97,1033.49 1127.43,1039.78C1096.82,1046.09 1066.68,1054.71 1037.33,1065.73C1027.89,1069.25 1023.08,1079.77 1026.6,1089.21C1030.12,1098.65 1040.65,1103.46 1050.09,1099.94Z" style="fill:rgb(255,20,0);"/>
                    <path d="M1053.3,1247.01C1047.85,1194.89 1040.91,1084.73 1014.67,1037.81C994.543,1001.84 961.01,974.106 925.849,953.784C835.758,901.712 742.355,903.893 659.541,969.996C551.6,1056.16 511.258,1196.58 512.43,1329.17C707.167,1381.04 905.405,1432.54 1053.3,1247.01Z" style="fill:rgb(100,100,100);"/>
                    <path d="M1054.07,1246.93C1052.79,1233.18 1051.56,1215.38 1049.71,1195.79C1047.43,1171.66 1044.25,1144.81 1039.93,1119.34C1034.41,1086.82 1026.8,1056.56 1015.92,1037.11C1005.79,1018.99 992.285,1002.94 976.881,988.867C961.508,974.823 944.246,962.745 926.573,952.53C881.213,926.312 835.012,913.784 789.735,916.135C744.542,918.481 700.259,935.645 658.641,968.869C604.486,1012.1 567.276,1068.93 543.754,1131.59C520.241,1194.23 510.405,1262.69 510.991,1329.18C510.997,1329.83 511.434,1330.39 512.06,1330.56C630.619,1362.17 750.48,1393.58 859.537,1371.71C930.137,1357.56 996.235,1321.12 1054.55,1248.01L1054.07,1246.93ZM1052.04,1246.01C994.313,1318.48 928.871,1354.65 858.935,1368.72C750.639,1390.5 631.629,1359.4 513.86,1328.06C513.391,1262.26 523.177,1194.56 546.438,1132.6C569.782,1070.42 606.698,1014.02 660.441,971.124C701.541,938.32 745.258,921.345 789.885,919.03C834.636,916.708 880.29,929.124 925.125,955.037C942.62,965.148 959.71,977.102 974.93,991.003C990.106,1004.87 1003.42,1020.67 1013.41,1038.52C1024.17,1057.74 1031.64,1087.67 1037.13,1119.82C1041.46,1145.22 1044.42,1172.02 1046.99,1196.06C1049.08,1215.63 1050.93,1233.37 1052.52,1247.09L1052.04,1246.01Z"/>
                    <path d="M523.847,1237.98C528.769,1239.2 533.696,1240.5 538.7,1241.64C543.643,1242.76 548.648,1243.74 553.667,1244.76C640.648,1262.52 735.811,1277.62 827.014,1271.85C895.7,1267.51 962.172,1251.24 1021.33,1214.95C1022.08,1214.49 1022.32,1213.5 1021.85,1212.74C1021.39,1211.99 1020.4,1211.75 1019.64,1212.21C960.981,1248.33 895.013,1264.61 826.832,1268.99C735.881,1274.82 641.048,1259.32 554.223,1242.01C549.203,1241.01 544.221,1239.94 539.24,1239.02C534.196,1238.09 529.163,1237.31 524.167,1236.45C523.746,1236.36 523.332,1236.63 523.243,1237.06C523.155,1237.48 523.425,1237.89 523.847,1237.98Z"/>
                    <path d="M788.157,959.4C786.206,960.85 784.198,962.261 782.253,963.851C780.378,965.386 778.581,967.071 776.733,968.745C747.225,995.491 714.546,1031.34 691.535,1070.11C673.694,1100.18 661.736,1132.09 661.792,1163.25C661.795,1164.13 662.517,1164.85 663.404,1164.85C664.291,1164.84 665.008,1164.12 665.005,1163.24C664.844,1132.6 676.521,1101.17 694.007,1071.58C716.796,1033 749.562,997.672 778.63,970.817C780.453,969.133 782.301,967.526 784.032,965.846C785.827,964.103 787.475,962.298 789.179,960.577C789.504,960.295 789.539,959.802 789.257,959.477C788.975,959.152 788.482,959.117 788.157,959.4Z"/>
                    <path d="M836.706,975.242C837.971,976.84 839.144,978.468 840.44,980.019C841.302,981.051 842.228,982.022 843.123,983.016C864.192,1006.41 882.024,1030.2 896.089,1056.02C911.676,1084.62 922.841,1115.52 929.679,1150.19C929.852,1151.06 930.699,1151.62 931.569,1151.45C932.438,1151.28 933.004,1150.43 932.831,1149.56C925.81,1114.59 914.397,1083.48 898.605,1054.64C884.379,1028.66 866.768,1004.37 845.183,981.132C844.268,980.146 843.369,979.139 842.397,978.199C840.937,976.788 839.376,975.512 837.835,974.166C837.538,973.855 837.044,973.843 836.732,974.14C836.421,974.437 836.409,974.931 836.706,975.242Z"/>
                    <path d="M820.751,926.95C809.827,927.302 799.039,929.326 791.105,937.479C780.644,948.231 788.63,965.758 800.463,971.358C809.358,975.568 820.806,976.131 830.462,974.793C833.46,974.377 836.574,973.702 839.313,972.369C849.899,967.217 850.806,954.302 845.957,944.704C842.211,937.29 831.458,928.488 822.974,927.755C820.259,927.52 817.748,928.238 815.128,928.88"/>
                    <path d="M820.688,926.168C818.496,926.034 816.328,925.881 814.156,926.014C810.804,926.219 807.537,926.959 804.399,927.923C799.11,929.546 794.22,932.214 790.069,936.47C784.412,942.283 783.708,949.924 786.069,956.869C788.371,963.638 793.609,969.712 799.846,972.661C804.447,974.835 809.707,976.071 815.066,976.585C820.352,977.091 825.734,976.896 830.659,976.214C832.212,975.999 833.795,975.716 835.344,975.315C836.933,974.904 838.487,974.369 839.941,973.661C845.726,970.859 848.863,965.925 849.882,960.382C850.866,955.028 849.844,949.093 847.298,944.026C845.35,940.148 841.589,935.893 837.194,932.515C832.729,929.084 827.612,926.58 823.111,926.176C822.289,926.103 821.483,926.107 820.688,926.168ZM813.523,928.929C809.655,929.542 805.857,930.245 802.319,931.695C798.606,933.218 795.155,935.384 792.142,938.488C787.31,943.456 786.798,950.001 788.814,955.936C790.866,961.977 795.515,967.419 801.079,970.055C805.388,972.097 810.319,973.249 815.34,973.732C820.399,974.218 825.551,974.025 830.265,973.371C831.71,973.171 833.183,972.909 834.624,972.535C836.027,972.172 837.4,971.703 838.684,971.078C843.545,968.7 846.157,964.527 846.995,959.858C847.847,955.111 846.891,949.861 844.615,945.382C842.823,941.855 839.349,938.017 835.326,934.96C831.349,931.938 826.832,929.666 822.838,929.333C821.874,929.253 820.939,929.312 820.016,929.443C818.508,929.658 817.029,930.064 815.511,930.441C814.65,930.652 813.779,930.124 813.568,929.263C813.54,929.152 813.526,929.04 813.523,928.929Z"/>
                </g>
                <g transform="matrix(0.889157,0.500173,-0.457603,0.971873,-711.276,-95.7615)">
                    <g transform="matrix(0.309021,0.00146932,-0.00146932,0.309021,2612.45,395.539)">
                        <path d="M537.416,443.379C435.075,469.225 365.809,578.847 400.634,649.04C472.19,793.266 681.848,716.997 871.59,659.256C968.522,629.758 1058.59,599.78 1123.97,566.149C1389.74,429.432 1315.94,373.123 1192.05,381.645" style="fill:rgb(100,100,100);"/>
                    </g>
                    <g transform="matrix(0.309021,0.00146932,-0.00146932,0.309021,2612.45,395.539)">
                        <path d="M537.416,443.379C435.075,469.225 365.809,578.847 400.634,649.04C472.19,793.266 680.739,717.335 870.48,659.594C967.412,630.096 1250.62,527.854 1308.75,456.847" style="fill:rgb(100,100,100);"/>
                        <path d="M531.973,421.826C468.912,437.745 417.22,482.341 390.178,532.141C366.871,575.062 362.045,621.733 380.439,659.059C409.557,718.201 458.521,745.606 519.681,753.007C618.371,764.948 752.101,720.674 877.62,683.056C942.399,663.657 1089.29,612.562 1198.79,559.518C1258.99,530.358 1307.97,499.721 1329.42,473.768C1338.76,462.36 1337.08,445.517 1325.67,436.178C1314.26,426.839 1297.42,428.519 1288.08,439.927C1264.95,468.447 1202.74,501.377 1132.73,533.197C1033.53,578.281 918.222,619.165 863.341,636.132C763.726,666.909 658.932,703.234 572.111,708.215C505.431,712.041 449.912,697.152 420.829,639.02C405.167,607.665 416.838,567.023 442.451,532.705C465.738,501.503 501.234,475.425 542.859,464.931C554.754,461.927 561.972,449.831 558.968,437.936C555.964,426.041 543.868,418.822 531.973,421.826Z" style="fill:rgb(255,20,0);"/>
                    </g>
                    <g transform="matrix(0.309021,0.00146932,-0.00146932,0.309021,2612.45,395.539)">
                        <path d="M551.406,604.903C541.415,552.901 539.485,498.553 550.632,446.552C555.075,425.824 561.484,405.566 570.254,386.245C606.134,307.196 678.792,246.754 734.832,301.345C774.418,339.907 832.516,351.278 849.938,279.694C864.392,220.306 957.94,224.477 1002.86,252.813C1029.96,269.905 1049.78,296.908 1065.75,324.102C1089.13,363.898 1107.07,405.844 1123.41,449.023C985.426,604.984 744.464,613.986 551.406,604.903Z" style="fill:rgb(100,100,100);"/>
                        <path d="M549.754,605.176C550.448,606.679 551.478,608.005 552.374,608.509L551.208,609.116C666.918,614.494 799.764,613.341 917.497,578.235C997.348,554.426 1070.26,515.018 1126.31,451.59C1127.27,450.513 1127.54,448.997 1127.03,447.652C1118.83,426.001 1110.22,404.66 1100.73,383.743C1091.21,362.756 1080.8,342.196 1069.03,322.177C1059.31,305.644 1048.17,289.188 1034.89,274.921C1025.93,265.289 1015.99,256.653 1004.86,249.641C978.037,232.74 934.352,224.211 899.548,232.019C873.712,237.815 852.776,252.508 846.384,278.829C838.38,311.792 821.564,326.399 801.737,328.12C780.65,329.951 756.738,317.64 737.352,298.758C710.99,273.073 681.129,271.605 652.796,285.28C618.895,301.641 587.132,340.24 566.92,384.732C562.479,394.519 558.636,404.543 555.341,414.745C552.051,424.934 549.307,435.301 547.061,445.787C541.439,472.057 539.091,498.92 539.467,525.781C539.805,549.89 542.327,573.996 546.551,597.663C546.927,599.771 546.947,601.982 547.724,603.976C547.79,604.147 547.854,604.295 547.993,604.415C548.876,605.175 548.74,604.758 549.754,605.176ZM554.318,600.816C554.074,599.36 553.63,597.921 553.379,596.464C549.352,573.148 546.99,549.417 546.718,525.688C546.417,499.37 548.677,473.053 554.202,447.317C556.399,437.074 559.082,426.947 562.3,416.994C565.513,407.056 569.259,397.291 573.587,387.759C593.012,344.928 623.323,307.556 655.943,291.797C681.526,279.437 708.5,280.739 732.312,303.932C753.338,324.418 779.485,337.303 802.361,335.331C824.7,333.405 844.436,317.687 853.492,280.559C859.209,257.122 878.145,244.368 901.162,239.229C934.122,231.871 975.48,239.956 1000.86,255.984C1014.08,264.333 1025.51,275.111 1035.6,287.11C1045.79,299.236 1054.6,312.61 1062.47,326.027C1074.09,345.825 1084.35,366.158 1093.74,386.91C1102.82,406.982 1111.08,427.445 1118.95,448.199C1064.04,509.42 992.937,547.469 915.21,570.551C799.238,604.99 668.53,606.142 554.318,600.816Z"/>
                    </g>
                    <g transform="matrix(0.309021,0.00146932,-0.00146932,0.309021,2612.45,395.539)">
                        <path d="M568.075,506.344C734.51,518.208 912.801,504.591 1059.9,418.925" style="fill:rgb(100,100,100);"/>
                        <path d="M567.96,507.944C568.431,510.292 566.548,508.224 568.337,509.815C568.843,510.266 569.687,509.927 570.363,509.98C577.945,510.576 585.551,511.115 593.18,511.562C668.638,515.984 746.079,514.24 821.573,502.971C905.935,490.377 987.892,465.567 1062.03,422.57C1064.04,421.398 1064.72,418.814 1063.55,416.802C1062.38,414.791 1059.79,414.109 1057.78,415.28C984.678,458.025 903.78,482.871 820.451,495.514C745.482,506.889 668.568,508.135 593.577,504.318C585.979,503.932 578.401,503.522 570.844,503.064C570.171,503.023 569.386,502.571 568.824,502.944C566.829,504.267 568.987,502.487 568.189,504.743C567.305,504.68 566.537,505.346 566.474,506.23C566.411,507.113 567.077,507.881 567.96,507.944Z"/>
                    </g>
                    <g transform="matrix(0.309021,0.00146932,-0.00146932,0.309021,2612.45,395.539)">
                        <path d="M1157.58,409.92C1210.38,429.411 1275.41,422.613 1335.43,403.299C1400.15,382.478 1458.73,347.009 1488.78,315.205C1498.72,304.316 1497.95,287.406 1487.06,277.467C1476.17,267.528 1459.26,268.299 1449.32,279.188C1424.59,307.238 1375.25,339.025 1320.33,357.999C1271.06,375.019 1217.23,382.105 1173.45,366.362C1161.43,361.983 1148.12,368.186 1143.74,380.206C1139.36,392.226 1145.56,405.54 1157.58,409.92Z" style="fill:rgb(255,20,0);"/>
                    </g>
                    <g transform="matrix(0.309021,0.00146932,-0.00146932,0.309021,2612.45,395.539)">
                        <path d="M1469.05,297.197C1446.65,321.13 1345.04,485.754 1366.33,579.928" style="fill:rgb(100,100,100);"/>
                        <path d="M1484.36,309.208L1484.27,309.293C1481.79,310.547 1477.04,306.282 1476.47,304.14C1476.42,303.957 1478.41,301.2 1478.59,300.707C1479.85,297.265 1479.13,293.288 1476.72,290.524C1474.04,287.463 1469.69,286.273 1465.84,287.556C1464.89,287.87 1463.99,288.323 1463.18,288.9C1462.62,289.296 1462.2,290.629 1461.63,290.253C1459.81,289.062 1458.41,287.334 1456.8,285.875L1453.39,282.625L1452.81,282.629C1452.25,282.627 1451.99,283.404 1451.54,283.825C1448.66,286.544 1445,290.568 1440.86,295.862C1422.75,319.05 1394.29,368.159 1371.23,421.402C1346.85,477.678 1330.66,539.31 1340.28,585.817C1343.53,600.197 1357.84,609.233 1372.22,605.982C1386.6,602.732 1395.64,588.418 1392.39,574.038C1384.99,543.922 1392.42,505.355 1405.2,467.444C1424.89,409.071 1458.48,352.921 1476.6,325.039C1479.9,319.968 1484.46,316.455 1484.38,313.024L1484.36,309.208Z" style="fill:rgb(255,20,0);"/>
                    </g>
                </g>
                <g transform="matrix(1.9614,0,0,2.14387,-4098.29,-380.171)">
                    <path d="M3026.46,1208.72C3018.77,1213.55 3011.31,1218.57 3007.76,1225.07C3006.47,1227.43 3005.74,1229.98 3005.55,1232.66C3005.3,1236.16 3006.18,1239.92 3008.24,1243.88C3013.2,1252.93 3020.76,1256.27 3029.11,1256.02C3037.37,1255.77 3046.37,1251.79 3052.94,1247.99L3053.32,1248.53C3055.11,1251.14 3056.31,1252.34 3057.85,1253.02C3059.18,1253.6 3060.91,1253.79 3063.99,1253.57C3066,1253.4 3067.5,1251.64 3067.34,1249.63C3067.18,1247.62 3065.41,1246.13 3063.41,1246.29C3062.48,1246.37 3061.75,1246.42 3061.16,1246.41C3060.96,1246.4 3060.82,1246.5 3060.7,1246.41C3060.2,1246.03 3059.79,1245.37 3059.11,1244.44L3058.89,1244.14C3061.7,1241.96 3063.49,1239.76 3064.63,1237.24C3065.81,1234.63 3066.41,1231.77 3066.83,1228.29C3067.18,1226.45 3065.97,1224.67 3064.13,1224.32C3062.28,1223.97 3060.5,1225.18 3060.16,1227.02C3059.49,1229.59 3058.84,1231.7 3057.7,1233.54C3056.83,1234.93 3055.53,1236 3053.66,1237.04C3052.2,1235.07 3050.82,1233.19 3049.42,1231.22C3047.52,1228.53 3045.6,1225.69 3043.44,1222.26C3041.32,1218.84 3038.4,1215.22 3035.74,1211.49C3043.5,1205.9 3050.77,1201.11 3052.67,1195.7C3053.86,1192.32 3053.5,1188.79 3051.14,1184.97C3048.75,1181.52 3044.51,1179.38 3039.74,1179.36C3034.02,1179.32 3027.79,1182.04 3024.81,1186.69C3021.72,1191.49 3021.5,1196.32 3023.03,1201.29C3023.78,1203.73 3025,1206.23 3026.46,1208.72ZM3030.77,1215.31C3028.14,1217.54 3025.69,1219.98 3023.52,1222.42C3021.58,1224.61 3020.19,1226.96 3019.21,1229.32C3018.64,1230.71 3018.53,1232.15 3018.6,1233.66C3018.65,1235.05 3018.94,1236.53 3019.71,1238.1C3021.76,1242.55 3025.26,1244.29 3029.23,1244.49C3035.34,1244.79 3042.12,1242.56 3047.49,1240.15C3046.28,1238.42 3045.12,1236.74 3043.95,1235.01C3042.05,1232.19 3040.12,1229.23 3037.95,1225.65C3035.9,1222.38 3033.29,1218.89 3030.77,1215.31ZM3031.73,1205.18C3034.66,1203.07 3037.35,1200.87 3039.6,1198.77C3042.66,1195.91 3045.19,1193.45 3042.99,1190.48C3042.71,1190.08 3042.23,1189.9 3041.76,1189.7C3040.62,1189.19 3039.27,1188.9 3037.88,1188.97C3035.45,1189.09 3032.85,1189.71 3031.38,1191.48C3028.6,1194.9 3028.89,1198.83 3030.57,1202.78C3030.91,1203.58 3031.3,1204.38 3031.73,1205.18Z" style="fill:rgb(51,51,51);"/>
                </g>
            </g>
        </g>
    </g>
    <defs>
        <linearGradient id="_Linear2" x1="0" y1="0" x2="1" y2="0" gradientUnits="userSpaceOnUse" gradientTransform="matrix(593.026,-457.416,636.356,426.27,931.68,992.761)"><stop offset="0" style="stop-color:rgb(26,26,26);stop-opacity:0.4"/><stop offset="0.6" style="stop-color:rgb(58,58,58);stop-opacity:0.33"/><stop offset="0.81" style="stop-color:rgb(130,130,130);stop-opacity:0.17"/><stop offset="1" style="stop-color:rgb(204,204,204);stop-opacity:0.01"/></linearGradient>
    </defs>
</svg>
